<svg xmlns="http://www.w3.org/2000/svg" viewBox="0 0 60 40">
  <!-- Red background -->
  <rect width="60" height="40" fill="#B22234"/>
  <!-- White stripes -->
  <rect y="3.08" width="60" height="3.08" fill="#fff"/>
  <rect y="9.23" width="60" height="3.08" fill="#fff"/>
  <rect y="15.38" width="60" height="3.08" fill="#fff"/>
  <rect y="21.54" width="60" height="3.08" fill="#fff"/>
  <rect y="27.69" width="60" height="3.08" fill="#fff"/>
  <rect y="33.85" width="60" height="3.08" fill="#fff"/>
  <!-- Blue canton -->
  <rect width="24" height="21.54" fill="#3C3B6E"/>
  <!-- Stars (simplified 5x4 + 4x3 pattern) -->
  <g fill="#fff" font-size="2.8" font-family="serif">
    <!-- Row 1: 6 stars -->
    <circle cx="2.4" cy="2.2" r="0.9"/><circle cx="6.4" cy="2.2" r="0.9"/><circle cx="10.4" cy="2.2" r="0.9"/><circle cx="14.4" cy="2.2" r="0.9"/><circle cx="18.4" cy="2.2" r="0.9"/><circle cx="22.4" cy="2.2" r="0.9"/>
    <!-- Row 2: 5 stars -->
    <circle cx="4.4" cy="4.5" r="0.9"/><circle cx="8.4" cy="4.5" r="0.9"/><circle cx="12.4" cy="4.5" r="0.9"/><circle cx="16.4" cy="4.5" r="0.9"/><circle cx="20.4" cy="4.5" r="0.9"/>
    <!-- Row 3: 6 stars -->
    <circle cx="2.4" cy="6.8" r="0.9"/><circle cx="6.4" cy="6.8" r="0.9"/><circle cx="10.4" cy="6.8" r="0.9"/><circle cx="14.4" cy="6.8" r="0.9"/><circle cx="18.4" cy="6.8" r="0.9"/><circle cx="22.4" cy="6.8" r="0.9"/>
    <!-- Row 4: 5 stars -->
    <circle cx="4.4" cy="9.1" r="0.9"/><circle cx="8.4" cy="9.1" r="0.9"/><circle cx="12.4" cy="9.1" r="0.9"/><circle cx="16.4" cy="9.1" r="0.9"/><circle cx="20.4" cy="9.1" r="0.9"/>
    <!-- Row 5: 6 stars -->
    <circle cx="2.4" cy="11.4" r="0.9"/><circle cx="6.4" cy="11.4" r="0.9"/><circle cx="10.4" cy="11.4" r="0.9"/><circle cx="14.4" cy="11.4" r="0.9"/><circle cx="18.4" cy="11.4" r="0.9"/><circle cx="22.4" cy="11.4" r="0.9"/>
    <!-- Row 6: 5 stars -->
    <circle cx="4.4" cy="13.7" r="0.9"/><circle cx="8.4" cy="13.7" r="0.9"/><circle cx="12.4" cy="13.7" r="0.9"/><circle cx="16.4" cy="13.7" r="0.9"/><circle cx="20.4" cy="13.7" r="0.9"/>
    <!-- Row 7: 6 stars -->
    <circle cx="2.4" cy="16.0" r="0.9"/><circle cx="6.4" cy="16.0" r="0.9"/><circle cx="10.4" cy="16.0" r="0.9"/><circle cx="14.4" cy="16.0" r="0.9"/><circle cx="18.4" cy="16.0" r="0.9"/><circle cx="22.4" cy="16.0" r="0.9"/>
    <!-- Row 8: 5 stars -->
    <circle cx="4.4" cy="18.3" r="0.9"/><circle cx="8.4" cy="18.3" r="0.9"/><circle cx="12.4" cy="18.3" r="0.9"/><circle cx="16.4" cy="18.3" r="0.9"/><circle cx="20.4" cy="18.3" r="0.9"/>
    <!-- Row 9: 6 stars -->
    <circle cx="2.4" cy="20.6" r="0.9"/><circle cx="6.4" cy="20.6" r="0.9"/><circle cx="10.4" cy="20.6" r="0.9"/><circle cx="14.4" cy="20.6" r="0.9"/><circle cx="18.4" cy="20.6" r="0.9"/><circle cx="22.4" cy="20.6" r="0.9"/>
  </g>
</svg>
